<svg xmlns="http://www.w3.org/2000/svg" viewBox="0 0 1182 110"><defs><style>.cls-1{fill:#353836;}.cls-2{fill:none;}</style></defs><g id="Layer_2" data-name="Layer 2"><g id="Layer_1-2" data-name="Layer 1"><path class="cls-1" d="M84.5638,96h-9.6V53.1179H21.2006V96h-9.6V6.3952h9.6v39.042H74.9633V6.3952h9.6Z"/><path class="cls-1" d="M146.1044,3.8356c26.1133,0,45.4424,19.9688,45.4424,47.3623S172.2177,98.56,146.1044,98.56s-45.4419-19.97-45.4419-47.3623S119.9916,3.8356,146.1044,3.8356Zm0,85.7637c21.249,0,35.8418-16.6406,35.8418-38.4014s-14.5928-38.4023-35.8418-38.4023-35.8413,16.6406-35.8413,38.4023S124.8558,89.5993,146.1044,89.5993Z"/><path class="cls-1" d="M215.9652,21.1159V96h-8.32V6.3952h12.1606l24.3208,77.5723L268.4476,6.3952h12.1607V96h-8.96V21.1159L247.9667,96h-8.32Z"/><path class="cls-1" d="M299.5472,6.3952H361.63v7.6807H309.1473V45.4372H348.829v7.6807H309.1473V88.319H361.63V96H299.5472Z"/><path class="cls-1" d="M378.29,63.3581c0,9.4727,5.5049,27.5215,30.0821,27.5215,21.3769,0,27.52-12.5449,27.52-19.8408,0-27.01-62.083-4.7364-62.083-39.6817,0-14.85,12.1611-27.5215,32.5136-27.5215,25.8574,0,34.69,15.8721,34.69,32.6416h-8.96c0-9.4726-3.7119-24.9619-25.7295-24.9619-16.2568,0-24.1924,11.2647-24.1924,18.5616,0,25.7285,62.0821,4.7363,62.0821,39.6816,0,14.8486-11.5205,28.8017-35.8408,28.8017-27.7774,0-39.042-18.4335-39.042-35.2021Z"/><rect class="cls-2" width="448" height="110"/><path class="cls-1" d="M634.44,63.3581c0,9.4727,5.5049,27.5215,30.082,27.5215,21.377,0,27.5215-12.5449,27.5215-19.8408,0-27.01-62.083-4.7364-62.083-39.6817,0-14.85,12.16-27.5215,32.5137-27.5215,25.8564,0,34.6894,15.8721,34.6894,32.6416H688.203c0-9.4726-3.7119-24.9619-25.7285-24.9619-16.2568,0-24.1934,11.2647-24.1934,18.5616,0,25.7285,62.083,4.7363,62.083,39.6816,0,14.8486-11.52,28.8017-35.8418,28.8017-27.7773,0-39.0419-18.4335-39.0419-35.2021Z"/><path class="cls-1" d="M779.5458,14.0759H748.1845V96h-9.6006V14.0759H707.2225V6.3952h72.3233Z"/><path class="cls-1" d="M859.57,66.5583c0,22.2734-9.0889,32.0019-33.9219,32.0019s-33.9209-9.7285-33.9209-32.0019V6.3952h9.6V66.5583c0,16.6406,5.6328,24.3213,24.3213,24.3213S849.97,83.1989,849.97,66.5583V6.3952H859.57Z"/><path class="cls-1" d="M880.5106,6.3952H911.872c26.1123,0,42.8818,17.4092,42.8818,44.8027S937.9843,96,911.872,96H880.5106Zm31.3614,7.6807H890.11V88.319H911.872c21.248,0,33.2812-15.36,33.2812-37.1211S933.12,14.0759,911.872,14.0759Z"/><path class="cls-1" d="M981.454,6.3952V96h-9.6006V6.3952Z"/><path class="cls-1" d="M1040.9979,3.8356c26.1133,0,45.4424,19.9688,45.4424,47.3623S1067.1112,98.56,1040.9979,98.56s-45.4414-19.97-45.4414-47.3623S1014.8846,3.8356,1040.9979,3.8356Zm0,85.7637c21.2491,0,35.8418-16.6406,35.8418-38.4014s-14.5927-38.4023-35.8418-38.4023-35.8418,16.6406-35.8418,38.4023S1019.7489,89.5993,1040.9979,89.5993Z"/><path class="cls-1" d="M1105.3788,63.3581c0,9.4727,5.5049,27.5215,30.082,27.5215,21.377,0,27.52-12.5449,27.52-19.8408,0-27.01-62.083-4.7364-62.083-39.6817,0-14.85,12.1612-27.5215,32.5137-27.5215,25.8574,0,34.6894,15.8721,34.6894,32.6416h-8.96c0-9.4726-3.7119-24.9619-25.7295-24.9619-16.2568,0-24.1924,11.2647-24.1924,18.5616,0,25.7285,62.082,4.7363,62.082,39.6816,0,14.8486-11.5205,28.8017-35.8408,28.8017-27.7773,0-39.042-18.4335-39.042-35.2021Z"/><rect class="cls-2" x="621" width="561" height="110"/><path class="cls-1" d="M540.7206,18.4279V48.51h28.9287v7.68H540.7206V86.5275h-8.1924V56.19h-28.93V48.51h28.93V18.4279Z"/></g></g></svg>